# xmcd
#
# Track frame offsets:
#	150
#	23512
#	39976
#	60239
#	83588
#	111134
#	128470
#	163292
#	189761
#	209460
#	233027
#	258875
#	296796
#
# Disc length: 4243 seconds
#
# Revision: 1
# Processed by: cddbd v1.5.2PL0 Copyright (c) Steve Scherf et al.
# Submitted via: audiograbber 1.83.01
#
DISCID=9e10910d
DTITLE=Eric Gales - Relentless
DYEAR=2010
DGENRE=Blues
TTITLE0=Bad Lawbreaker
TTITLE1=A Little More Time
TTITLE2=Block The Sun
TTITLE3=Make It There
TTITLE4=Draggin' Me Down
TTITLE5=The Finest Club In Town
TTITLE6=When You've Got No Place To Go
TTITLE7=The Liar
TTITLE8=If You Knew The Truth
TTITLE9=The Spice
TTITLE10=The Change In Me
TTITLE11=On The Wings Of Rock And Roll
TTITLE12=Universal Peacepipe
EXTD=
EXTT0=
EXTT1=
EXTT2=
EXTT3=
EXTT4=
EXTT5=
EXTT6=
EXTT7=
EXTT8=
EXTT9=
EXTT10=
EXTT11=
EXTT12=
PLAYORDER=
